<svg width="12" height="16" viewBox="0 0 12 16" fill="none" xmlns="http://www.w3.org/2000/svg">
<path d="M6 0C2.69158 0 0 2.74766 0 6.125C0 7.20606 0.279796 8.26891 0.809112 9.19859C0.93251 9.41534 1.07045 9.62656 1.21916 9.82641L5.73931 16H6.26066L10.7808 9.82644C10.9295 9.62656 11.0675 9.41537 11.1909 9.19862C11.7202 8.26891 12 7.20606 12 6.125C12 2.74766 9.30842 0 6 0ZM6 8.15625C4.90283 8.15625 4.0102 7.24503 4.0102 6.125C4.0102 5.00497 4.90283 4.09375 6 4.09375C7.09717 4.09375 7.9898 5.00497 7.9898 6.125C7.9898 7.24503 7.09717 8.15625 6 8.15625Z" fill="#5BC3E3"/>
</svg>
