<svg width="210" height="47" viewBox="0 0 210 47" fill="none" xmlns="http://www.w3.org/2000/svg">
<path d="M37.9693 39.1667C37.9693 39.6861 37.7693 40.1842 37.4132 40.5515C37.0572 40.9188 36.5743 41.1251 36.0708 41.1251H9.49233C8.98883 41.1251 8.50594 40.9188 8.14991 40.5515C7.79388 40.1842 7.59387 39.6861 7.59387 39.1667V21.5417H1.89848L21.5039 3.15691C21.8534 2.82885 22.309 2.64705 22.7816 2.64705C23.2541 2.64705 23.7097 2.82885 24.0592 3.15691L43.6647 21.5417H37.9693V39.1667ZM22.7816 33.2917L29.1585 26.7137C29.5552 26.3045 29.8698 25.8188 30.0845 25.2842C30.2991 24.7496 30.4096 24.1766 30.4096 23.598C30.4096 23.0194 30.2991 22.4464 30.0845 21.9118C29.8698 21.3772 29.5552 20.8914 29.1585 20.4823C28.7619 20.0731 28.291 19.7486 27.7727 19.5271C27.2545 19.3057 26.699 19.1917 26.1381 19.1917C25.5771 19.1917 25.0216 19.3057 24.5034 19.5271C23.9851 19.7486 23.5142 20.0731 23.1176 20.4823L22.7816 20.8289L22.4455 20.4823C22.0489 20.0731 21.578 19.7486 21.0597 19.5271C20.5415 19.3057 19.986 19.1917 19.4251 19.1917C18.8641 19.1917 18.3087 19.3057 17.7904 19.5271C17.2722 19.7486 16.8013 20.0731 16.4046 20.4823C16.008 20.8914 15.6933 21.3772 15.4787 21.9118C15.264 22.4464 15.1535 23.0194 15.1535 23.598C15.1535 24.1766 15.264 24.7496 15.4787 25.2842C15.6933 25.8188 16.008 26.3045 16.4046 26.7137L22.7816 33.2917Z"/>
<path d="M62.6493 34.8016V14.4898H66.9414L73.7183 27.0342L80.5329 14.4898H84.7497V34.8016H80.7965V20.5095L74.9984 31.1897H72.4006L66.5648 20.5095V34.8016H62.6493Z"/>
<path d="M98.1813 35.19C96.6251 35.19 95.232 34.9181 94.0021 34.3744C92.7723 33.8048 91.7055 33.028 90.8019 32.0442C89.9234 31.0603 89.2457 29.947 88.7688 28.7042C88.2919 27.4355 88.0535 26.0891 88.0535 24.6651C88.0535 23.2411 88.2919 21.8947 88.7688 20.626C89.2457 19.3574 89.9234 18.244 90.8019 17.2861C91.7055 16.3022 92.7723 15.5384 94.0021 14.9947C95.2571 14.4251 96.6502 14.1402 98.1813 14.1402C99.7124 14.1402 101.093 14.4251 102.323 14.9947C103.578 15.5384 104.644 16.3022 105.523 17.2861C106.427 18.244 107.117 19.3574 107.594 20.626C108.071 21.8947 108.309 23.2411 108.309 24.6651C108.309 26.0891 108.071 27.4355 107.594 28.7042C107.117 29.947 106.427 31.0603 105.523 32.0442C104.644 33.028 103.578 33.8048 102.323 34.3744C101.093 34.9181 99.7124 35.19 98.1813 35.19ZM92.3079 24.7039C92.3079 25.9985 92.5714 27.1636 93.0985 28.1993C93.6256 29.2349 94.3284 30.0505 95.2069 30.646C96.0854 31.2415 97.0769 31.5393 98.1813 31.5393C99.2606 31.5393 100.239 31.2415 101.118 30.646C102.022 30.0246 102.737 29.1961 103.264 28.1605C103.791 27.0989 104.055 25.9338 104.055 24.6651C104.055 23.3705 103.791 22.2054 103.264 21.1698C102.737 20.1341 102.022 19.3185 101.118 18.723C100.239 18.1016 99.2606 17.7909 98.1813 17.7909C97.0769 17.7909 96.0854 18.1016 95.2069 18.723C94.3284 19.3444 93.6256 20.1729 93.0985 21.2086C92.5714 22.2184 92.3079 23.3835 92.3079 24.7039Z"/>
<path d="M111.606 34.8016V14.5286H115.747V29.0925L125.724 14.4898H129.489V34.8016H125.348V20.5484L115.484 34.8016H111.606ZM120.566 12.3926C118.709 12.3926 117.266 11.9136 116.237 10.9556C115.233 9.99762 114.731 8.79367 114.731 7.34375H117.441C117.441 8.0946 117.68 8.71599 118.157 9.20793C118.659 9.69987 119.462 9.94583 120.566 9.94583C121.646 9.94583 122.411 9.71281 122.863 9.24677C123.34 8.78072 123.629 8.14638 123.729 7.34375H126.44C126.44 8.79367 125.925 9.99762 124.896 10.9556C123.892 11.9136 122.449 12.3926 120.566 12.3926Z"/>
<path d="M141.105 39.6562V31.0344H141.557C142.084 31.0344 142.573 30.8791 143.025 30.5684C143.477 30.2577 143.879 29.7269 144.23 28.976C144.581 28.1993 144.87 27.1377 145.096 25.7914C145.322 24.4191 145.46 22.6974 145.51 20.626L145.736 14.4898H159.779V31.0344H162.49V39.6562H158.838V34.8016H144.719V39.6562H141.105ZM147.016 31.0344H155.638V18.1793H149.388L149.275 21.0144C149.2 22.9822 149.062 24.6392 148.861 25.9856C148.685 27.3319 148.434 28.4064 148.108 29.2091C147.807 30.0117 147.443 30.6201 147.016 31.0344Z"/>
<path d="M174.475 35.19C172.919 35.19 171.526 34.9181 170.296 34.3744C169.066 33.8048 167.999 33.028 167.096 32.0442C166.217 31.0603 165.54 29.947 165.063 28.7042C164.586 27.4355 164.347 26.0891 164.347 24.6651C164.347 23.2411 164.586 21.8947 165.063 20.626C165.54 19.3574 166.217 18.244 167.096 17.2861C167.999 16.3022 169.066 15.5384 170.296 14.9947C171.551 14.4251 172.944 14.1402 174.475 14.1402C176.006 14.1402 177.387 14.4251 178.617 14.9947C179.872 15.5384 180.938 16.3022 181.817 17.2861C182.72 18.244 183.411 19.3574 183.888 20.626C184.364 21.8947 184.603 23.2411 184.603 24.6651C184.603 26.0891 184.364 27.4355 183.888 28.7042C183.411 29.947 182.72 31.0603 181.817 32.0442C180.938 33.028 179.872 33.8048 178.617 34.3744C177.387 34.9181 176.006 35.19 174.475 35.19ZM168.602 24.7039C168.602 25.9985 168.865 27.1636 169.392 28.1993C169.919 29.2349 170.622 30.0505 171.501 30.646C172.379 31.2415 173.371 31.5393 174.475 31.5393C175.554 31.5393 176.533 31.2415 177.412 30.646C178.315 30.0246 179.031 29.1961 179.558 28.1605C180.085 27.0989 180.348 25.9338 180.348 24.6651C180.348 23.3705 180.085 22.2054 179.558 21.1698C179.031 20.1341 178.315 19.3185 177.412 18.723C176.533 18.1016 175.554 17.7909 174.475 17.7909C173.371 17.7909 172.379 18.1016 171.501 18.723C170.622 19.3444 169.919 20.1729 169.392 21.2086C168.865 22.2184 168.602 23.3835 168.602 24.7039Z"/>
<path d="M187.9 34.8016V14.4898H192.192L198.969 27.0342L205.783 14.4898H210V34.8016H206.047V20.5095L200.249 31.1897H197.651L191.815 20.5095V34.8016H187.9Z"/>
</svg>
