<svg width="20" height="20" viewBox="0 0 20 20" fill="none" xmlns="http://www.w3.org/2000/svg">
<path d="M18.8414 4.90405L13.3824 10.3279L18.8414 15.7518C18.9401 15.5455 19 15.3175 19 15.074V5.58183C19 5.3383 18.9401 5.11031 18.8414 4.90405Z" fill="#5BC3E3"/>
<path d="M17.4177 4H2.58178C2.33826 4 2.11027 4.05987 1.90401 4.15855L8.8812 11.1006C9.49812 11.7175 10.5013 11.7175 11.1183 11.1006L18.0954 4.15855C17.8892 4.05987 17.6612 4 17.4177 4Z" fill="#5BC3E3"/>
<path d="M1.15855 4.90405C1.05987 5.11031 1 5.3383 1 5.58183V15.074C1 15.3175 1.05987 15.5455 1.15855 15.7518L6.61757 10.3279L1.15855 4.90405Z" fill="#5BC3E3"/>
<path d="M12.6364 11.074L11.864 11.8465C10.836 12.8744 9.1634 12.8744 8.13547 11.8465L7.36302 11.074L1.90401 16.4978C2.11027 16.5965 2.33826 16.6564 2.58178 16.6564H17.4177C17.6612 16.6564 17.8892 16.5965 18.0954 16.4978L12.6364 11.074Z" fill="#5BC3E3"/>
</svg>
