<svg width="20" height="20" viewBox="0 0 20 20" fill="none" xmlns="http://www.w3.org/2000/svg">
<path d="M17.5744 13.5619C17.5302 13.5268 14.3175 11.2111 13.4356 11.3773C13.0147 11.4518 12.774 11.7389 12.2909 12.3136C12.2132 12.4065 12.0265 12.6288 11.8813 12.7869C11.5761 12.6874 11.2783 12.5662 10.9903 12.4243C9.50377 11.7006 8.30269 10.4995 7.57898 9.01294C7.43697 8.72498 7.31577 8.42721 7.21631 8.12193C7.37498 7.97621 7.59733 7.78948 7.69231 7.70961C8.26437 7.22929 8.55202 6.98859 8.6265 6.56656C8.77923 5.69228 6.46507 2.45742 6.44079 2.42828C6.33579 2.27828 6.19876 2.1535 6.03963 2.06297C5.88049 1.97243 5.70321 1.9184 5.52063 1.90479C4.58266 1.90479 1.90475 5.37872 1.90475 5.96374C1.90475 5.99774 1.95387 9.45386 6.21574 13.7891C10.5467 18.0461 14.0023 18.0953 14.0363 18.0953C14.6218 18.0953 18.0952 15.4174 18.0952 14.4794C18.0818 14.2974 18.0281 14.1208 17.938 13.9621C17.8479 13.8034 17.7238 13.6668 17.5744 13.5619Z" fill="#5BC3E3"/>
</svg>
