<svg width="39" height="39" viewBox="0 0 39 39" fill="none" xmlns="http://www.w3.org/2000/svg">
<path d="M28.5475 2.20247L28.5472 2.20218C28.3689 2.02571 28.1277 1.925 27.875 1.925H10.375C7.92207 1.925 5.92497 3.92031 5.92497 6.375V32.625C5.92497 35.0797 7.92207 37.075 10.375 37.075H29.625C32.0779 37.075 34.075 35.0797 34.075 32.625V8.125C34.075 7.87225 33.9743 7.63112 33.7978 7.45275L33.7975 7.45247L28.5475 2.20247ZM32.175 32.625C32.175 34.0308 31.0308 35.175 29.625 35.175H10.375C8.96914 35.175 7.82497 34.0308 7.82497 32.625V6.375C7.82497 4.96917 8.96914 3.825 10.375 3.825H27.4817L32.175 8.51832V32.625Z" fill="white" stroke="white" stroke-width="0.15"/>
<path d="M25.2499 28.175H14.7499C14.2255 28.175 13.7999 28.6006 13.7999 29.125C13.7999 29.6494 14.2255 30.075 14.7499 30.075H25.2499C25.7743 30.075 26.1999 29.6494 26.1999 29.125C26.1999 28.6006 25.7743 28.175 25.2499 28.175Z" fill="white" stroke="white" stroke-width="0.15"/>
<path d="M19.5761 24.7244L19.576 24.7243C19.1071 24.4889 18.9149 23.9191 19.1505 23.4495L19.5761 24.7244ZM19.5761 24.7244C19.7127 24.7927 19.8572 24.825 19.9999 24.825C20.3494 24.825 20.6837 24.6313 20.8508 24.3009L20.851 24.3006L24.3509 17.3007C24.3509 17.3007 24.3509 17.3006 24.351 17.3006C24.4992 17.0059 24.482 16.6562 24.3091 16.3771C24.1363 16.0979 23.8288 15.925 23.4999 15.925H18.037L20.8492 10.3007C21.0849 9.83106 20.8927 9.26116 20.4238 9.02576L20.3901 9.09278L20.4239 9.02581C19.9521 8.788 19.3841 8.98438 19.1489 9.45103L19.1488 9.45124L15.6489 16.4511L15.7159 16.4848L15.6488 16.4512L15.6488 16.4512C15.5006 16.7459 15.5178 17.0956 15.6906 17.3748C15.8636 17.6542 16.1712 17.825 16.4999 17.825H21.9628L19.1506 23.4494L19.5761 24.7244Z" fill="white" stroke="white" stroke-width="0.15"/>
</svg>
