<svg width="39" height="39" viewBox="0 0 39 39" fill="none" xmlns="http://www.w3.org/2000/svg">
<path d="M34.3598 15.5087H23.8839V7.09092H34.3598C34.8823 7.09092 35.306 6.66729 35.306 6.14474C35.306 5.6222 34.8823 5.19856 34.3598 5.19856H23.7466C23.4693 4.49744 22.7852 4 21.9866 4H20.0942C19.7497 4 19.4266 4.09304 19.148 4.25459C18.8695 4.09304 18.5464 4 18.2019 4H16.3095C15.5109 4 14.8268 4.49744 14.5495 5.19856H3.94618C3.42364 5.19856 3 5.6222 3 6.14474C3 6.66729 3.42364 7.09092 3.94618 7.09092H14.4171V15.5087H3.94618C3.42364 15.5087 3 15.9323 3 16.4548C3 16.9774 3.42364 17.401 3.94618 17.401H14.5495C14.8268 18.1021 15.5109 18.5995 16.3095 18.5995H18.2019C18.5464 18.5995 18.8695 18.5065 19.148 18.3449C19.4266 18.5065 19.7497 18.5995 20.0942 18.5995H21.9866C22.7851 18.5995 23.4693 18.1021 23.7466 17.401H34.3598C34.8823 17.401 35.306 16.9774 35.306 16.4548C35.306 15.9323 34.8823 15.5087 34.3598 15.5087ZM16.3095 16.7072L16.3093 5.89236H18.2019V16.7072H16.3095ZM21.9866 16.7072H20.0942V5.89236H21.9866V16.7072Z" fill="white"/>
<path d="M20.7588 22.0508C19.8841 21.1595 19.5301 20.9963 19.1481 20.9963C18.7661 20.9963 18.412 21.1595 17.5373 22.0508C16.9845 22.6143 16.3793 23.3187 15.8333 24.0343C14.7268 25.4843 13.4079 27.568 13.4079 29.2597C13.4079 32.4249 15.9829 34.9999 19.1481 34.9999C22.3132 34.9999 24.8882 32.4249 24.8882 29.2597C24.8882 27.568 23.5693 25.4843 22.4629 24.0343C21.9168 23.3186 21.3116 22.6142 20.7588 22.0508ZM19.1481 33.1075C17.0263 33.1075 15.3003 31.3814 15.3003 29.2597C15.3003 28.423 15.9674 27.0375 17.1307 25.4583C17.9202 24.3865 18.6928 23.5557 19.1481 23.1205C19.6034 23.5557 20.376 24.3865 21.1655 25.4583C22.3287 27.0375 22.9959 28.423 22.9959 29.2597C22.9959 31.3814 21.2697 33.1075 19.1481 33.1075Z" fill="white"/>
</svg>
