<svg width="19" height="16" viewBox="0 0 19 16" fill="none" xmlns="http://www.w3.org/2000/svg">
<path d="M1.18186 7.82732L5.2052 9.32754L6.7736 14.3737C6.8418 14.7147 7.25095 14.7829 7.52372 14.5783L9.77404 12.7371C9.97862 12.5326 10.3196 12.5326 10.5924 12.7371L14.6157 15.6694C14.8884 15.874 15.2976 15.7376 15.3658 15.3966L18.3662 1.07632C18.4344 0.735364 18.0935 0.394408 17.7525 0.530792L1.18186 6.94083C0.772712 7.07721 0.772712 7.69094 1.18186 7.82732ZM6.56904 8.57743L14.4793 3.73581C14.6157 3.66762 14.7521 3.87219 14.6157 3.94039L8.13744 10.0095C7.93287 10.214 7.72829 10.4868 7.72829 10.8278L7.52372 12.4644C7.52372 12.6689 7.18276 12.7371 7.11456 12.4644L6.29625 9.46393C6.09168 9.12297 6.22808 8.71381 6.56904 8.57743Z" fill="#5BC3E3"/>
</svg>
