<svg width="20" height="12" viewBox="0 0 20 12" fill="none" xmlns="http://www.w3.org/2000/svg">
<path d="M19.0803 9.97597C19.0803 9.90332 19.0077 9.90333 19.0077 9.83068C18.7171 9.24952 18.0633 8.52307 17.1916 7.72398C16.7557 7.36075 16.5377 7.07017 16.3925 6.92488C16.1745 6.6343 16.1745 6.41637 16.2472 6.12579C16.3198 5.90785 16.6104 5.54462 17.1189 4.89081C17.4095 4.52759 17.5548 4.30966 17.7727 4.09173C18.8624 2.63882 19.3709 1.69443 19.2256 1.25856L19.153 1.18592C19.0803 1.11328 19.0077 1.04064 18.8624 1.04064C18.7171 0.96799 18.4992 0.96799 18.2812 1.04064H15.5207C15.4481 1.04064 15.4481 1.04064 15.3028 1.04064C15.2301 1.04064 15.1575 1.04064 15.1575 1.04064H15.0848H15.0122L14.9396 1.11327C14.8669 1.18592 14.8669 1.18592 14.8669 1.25856C14.5763 2.05766 14.2131 2.71146 13.8499 3.43791C13.6319 3.80114 13.414 4.16437 13.1961 4.45495C12.9781 4.74553 12.8328 4.96346 12.6875 5.10875C12.5423 5.25404 12.397 5.32669 12.3243 5.47198C12.2517 5.54462 12.1064 5.61727 12.1064 5.54463C12.0338 5.54463 11.9611 5.54462 11.9611 5.47198C11.8885 5.39933 11.8158 5.32668 11.7432 5.25404C11.6705 5.18139 11.6705 5.0361 11.5979 4.89081C11.5979 4.74552 11.5979 4.60023 11.5979 4.52759C11.5979 4.45494 11.5979 4.23702 11.5979 4.09173C11.5979 3.87379 11.5979 3.7285 11.5979 3.65585C11.5979 3.43792 11.5979 3.14734 11.5979 2.85676C11.5979 2.56618 11.5979 2.34824 11.5979 2.20295C11.5979 2.05766 11.5979 1.83973 11.5979 1.69444C11.5979 1.4765 11.5979 1.33121 11.5979 1.25856C11.5979 1.18592 11.5252 1.04063 11.5252 0.967986C11.4526 0.895341 11.3799 0.822694 11.3073 0.750048C11.2347 0.677403 11.0894 0.677406 11.0167 0.604761C10.6535 0.532115 10.2176 0.459473 9.70912 0.459473C8.5468 0.459473 7.7477 0.53212 7.45712 0.67741C7.31183 0.750055 7.16654 0.822696 7.09389 0.967986C6.9486 1.11328 6.9486 1.18592 7.02124 1.18592C7.38447 1.25857 7.67505 1.40385 7.82034 1.62179L7.89299 1.76709C7.96564 1.83973 7.96562 1.98501 8.03827 2.20295C8.11091 2.42088 8.11092 2.63882 8.11092 2.9294C8.11092 3.36527 8.11092 3.80115 8.11092 4.09173C8.11092 4.45495 8.03827 4.67288 8.03827 4.89081C8.03827 5.10875 7.96564 5.25404 7.89299 5.32669C7.82035 5.47198 7.82034 5.54463 7.74769 5.54463C7.74769 5.54463 7.74769 5.61727 7.67504 5.61727C7.6024 5.61727 7.52976 5.68991 7.38447 5.68991C7.31182 5.68991 7.16654 5.61727 7.09389 5.54463C6.9486 5.47198 6.80331 5.32669 6.73067 5.1814C6.58538 5.03611 6.44008 4.81817 6.29479 4.52759C6.1495 4.23701 5.93156 3.94643 5.78627 3.51056L5.64099 3.21999C5.56835 3.0747 5.42305 2.78411 5.27776 2.42089C5.13247 2.05766 4.98718 1.76709 4.84189 1.40386C4.76925 1.25857 4.69661 1.18592 4.62396 1.11327H4.55131C4.55131 1.11327 4.47866 1.04064 4.40602 1.04064C4.33337 1.04064 4.26073 0.967986 4.18809 0.967986H1.57286C1.28228 0.967986 1.13699 1.04063 1.06435 1.11327L0.991699 1.18592C0.991699 1.18592 0.991699 1.25857 0.991699 1.33121C0.991699 1.40386 0.991704 1.4765 1.06435 1.62179C1.42757 2.49353 1.86344 3.36527 2.29931 4.23701C2.73518 5.03611 3.17106 5.76256 3.46164 6.27108C3.82486 6.77959 4.11544 7.28811 4.47866 7.72398C4.84189 8.15985 5.05982 8.45043 5.13247 8.59572C5.27776 8.74101 5.3504 8.81365 5.42304 8.88629L5.64099 9.10423C5.78628 9.24952 6.00421 9.46746 6.29479 9.68539C6.58537 9.90333 6.94859 10.1213 7.31182 10.3392C7.67504 10.5571 8.11092 10.7024 8.54679 10.8477C9.05531 10.993 9.49117 11.0657 9.92704 10.993H11.0167C11.2347 10.993 11.38 10.9204 11.5252 10.7751L11.5979 10.7024C11.5979 10.6298 11.6705 10.6298 11.6705 10.5571C11.6705 10.4845 11.6705 10.4118 11.6705 10.2666C11.6705 9.97597 11.6705 9.75804 11.7432 9.5401C11.8158 9.32217 11.8158 9.17688 11.8885 9.03159C11.9611 8.8863 12.0338 8.81365 12.1064 8.741C12.179 8.66836 12.2517 8.59572 12.2517 8.59572H12.3243C12.4696 8.52307 12.6876 8.59571 12.8328 8.741C13.0508 8.8863 13.2687 9.10423 13.414 9.32217C13.5593 9.5401 13.7772 9.75804 14.0678 10.0486C14.3584 10.3392 14.5763 10.5571 14.7216 10.6298L14.9396 10.7751C15.0848 10.8477 15.2301 10.9204 15.4481 10.993C15.666 11.0657 15.8113 11.0656 15.9566 11.0656L18.4265 10.993C18.6445 10.993 18.8624 10.9204 19.0077 10.8477C19.153 10.7751 19.2256 10.7024 19.2256 10.5571C19.2256 10.4845 19.2256 10.3392 19.2256 10.2666C19.0803 10.1213 19.0803 10.0486 19.0803 9.97597Z" fill="#5BC3E3"/>
</svg>
