<svg width="21" height="21" viewBox="0 0 21 21" fill="none" xmlns="http://www.w3.org/2000/svg">
<path d="M17.9857 2.92441C16.1035 1.0377 13.5969 0 10.933 0C5.43457 0 0.960352 4.47422 0.960352 9.97266C0.960352 11.7291 1.41855 13.4451 2.29004 14.959L0.875 20.125L6.1623 18.7369C7.61777 19.532 9.25742 19.9498 10.9285 19.9498H10.933C16.427 19.9498 21 15.4756 21 9.97715C21 7.31328 19.868 4.81113 17.9857 2.92441V2.92441ZM10.933 18.2697C9.4416 18.2697 7.98164 17.8699 6.71035 17.1152L6.40937 16.9355L3.27383 17.7576L4.10938 14.6984L3.91172 14.384C3.08066 13.0633 2.64492 11.5404 2.64492 9.97266C2.64492 5.4041 6.36445 1.68457 10.9375 1.68457C13.1521 1.68457 15.232 2.54707 16.7953 4.11484C18.3586 5.68262 19.3199 7.7625 19.3154 9.97715C19.3154 14.5502 15.5016 18.2697 10.933 18.2697V18.2697ZM15.4791 12.0615C15.232 11.9357 14.0057 11.3338 13.7766 11.2529C13.5475 11.1676 13.3813 11.1271 13.215 11.3787C13.0488 11.6303 12.5727 12.1873 12.4244 12.358C12.2807 12.5242 12.1324 12.5467 11.8854 12.4209C10.4209 11.6887 9.45957 11.1137 8.49375 9.45605C8.2377 9.01582 8.7498 9.04727 9.22598 8.09492C9.30684 7.92871 9.26641 7.78496 9.20352 7.65918C9.14062 7.5334 8.64199 6.30703 8.43535 5.8084C8.2332 5.32324 8.02656 5.39063 7.87383 5.38164C7.73008 5.37266 7.56387 5.37266 7.39766 5.37266C7.23145 5.37266 6.96191 5.43555 6.73281 5.68262C6.50371 5.93418 5.86133 6.53613 5.86133 7.7625C5.86133 8.98887 6.75527 10.1748 6.87656 10.341C7.00234 10.5072 8.63301 13.0229 11.1352 14.1055C12.7164 14.7883 13.3363 14.8467 14.127 14.7299C14.6076 14.658 15.6004 14.1279 15.807 13.5439C16.0137 12.96 16.0137 12.4613 15.9508 12.358C15.8924 12.2457 15.7262 12.1828 15.4791 12.0615Z" fill="#5BC3E3"/>
</svg>
