<svg width="18" height="18" viewBox="0 0 18 18" fill="none" xmlns="http://www.w3.org/2000/svg"><path d="M11.714 8.346a4.612 4.612 0 001.901-3.73A4.62 4.62 0 009 0a4.62 4.62 0 00-4.615 4.615c0 1.532.75 2.891 1.901 3.731-2.863 1.096-4.901 3.872-4.901 7.115 0 1.4 1.138 2.539 2.538 2.539h10.154c1.4 0 2.538-1.139 2.538-2.539 0-3.243-2.038-6.02-4.901-7.115zm-5.945-3.73C5.77 2.833 7.22 1.384 9 1.384s3.23 1.449 3.23 3.23A3.234 3.234 0 019 7.845a3.234 3.234 0 01-3.23-3.23zm8.308 12H3.923A1.155 1.155 0 012.77 15.46 6.238 6.238 0 019 9.231a6.238 6.238 0 016.23 6.23c0 .637-.517 1.154-1.153 1.154z"/></svg>