<svg width="210" height="47" viewBox="0 0 210 47" fill="none" xmlns="http://www.w3.org/2000/svg"><path d="M37.97 39.167c0 .52-.2 1.017-.557 1.384a1.87 1.87 0 01-1.342.574H9.492a1.87 1.87 0 01-1.342-.574 1.99 1.99 0 01-.556-1.384V21.542H1.898L21.504 3.157c.35-.328.805-.51 1.278-.51.472 0 .928.182 1.277.51l19.606 18.385h-5.696v17.625zm-15.188-5.875l6.377-6.578c.396-.41.71-.895.925-1.43a4.529 4.529 0 000-3.372 4.417 4.417 0 00-.925-1.43 4.265 4.265 0 00-1.386-.955 4.159 4.159 0 00-3.27 0 4.269 4.269 0 00-1.385.955l-.336.347-.337-.347a4.265 4.265 0 00-1.385-.955 4.159 4.159 0 00-3.27 0 4.269 4.269 0 00-1.385.955c-.397.41-.712.895-.926 1.43a4.527 4.527 0 000 3.372c.214.535.529 1.02.926 1.43l6.377 6.578zm39.868 1.51V14.49h4.291l6.777 12.544 6.815-12.544h4.217v20.312h-3.954V20.509l-5.798 10.68h-2.597l-5.836-10.68v14.293h-3.916zm35.531.388c-1.556 0-2.949-.272-4.179-.816a10.014 10.014 0 01-3.2-2.33 10.759 10.759 0 01-2.033-3.34 11.384 11.384 0 01-.716-4.039c0-1.424.239-2.77.716-4.039a10.193 10.193 0 012.033-3.34 9.53 9.53 0 013.2-2.291c1.255-.57 2.648-.855 4.18-.855 1.53 0 2.911.285 4.141.855a9.06 9.06 0 013.2 2.291 9.874 9.874 0 012.071 3.34c.477 1.269.715 2.615.715 4.04 0 1.423-.238 2.77-.715 4.038a10.404 10.404 0 01-2.071 3.34 9.495 9.495 0 01-3.2 2.33c-1.23.544-2.61.816-4.142.816zm-5.873-10.486c0 1.294.263 2.46.79 3.495.528 1.036 1.23 1.851 2.109 2.447.878.595 1.87.893 2.974.893 1.08 0 2.058-.298 2.937-.893.904-.621 1.619-1.45 2.146-2.486.527-1.061.791-2.226.791-3.495 0-1.294-.264-2.46-.791-3.495-.527-1.036-1.242-1.852-2.146-2.447a4.97 4.97 0 00-2.937-.932c-1.104 0-2.096.31-2.974.932-.879.621-1.581 1.45-2.108 2.486-.528 1.01-.791 2.175-.791 3.495zm19.298 10.098V14.529h4.141v14.564l9.977-14.603h3.765v20.312h-4.141V20.548l-9.864 14.254h-3.878zm8.96-22.41c-1.857 0-3.3-.478-4.329-1.436-1.004-.958-1.506-2.162-1.506-3.612h2.71c0 .75.239 1.372.716 1.864.502.492 1.305.738 2.409.738 1.08 0 1.845-.233 2.297-.7.477-.465.766-1.1.866-1.902h2.711c0 1.45-.515 2.654-1.544 3.612-1.004.958-2.447 1.437-4.33 1.437zm20.539 27.264v-8.622h.452a2.54 2.54 0 001.468-.466c.452-.31.854-.841 1.205-1.592.351-.777.64-1.838.866-3.185.226-1.372.364-3.094.414-5.165l.226-6.136h14.043v16.544h2.711v8.622h-3.652v-4.854h-14.119v4.854h-3.614zm5.911-8.622h8.622V18.18h-6.25l-.113 2.835c-.075 1.968-.213 3.625-.414 4.972-.176 1.346-.427 2.42-.753 3.223-.301.803-.665 1.411-1.092 1.825zm27.459 4.156c-1.556 0-2.949-.272-4.179-.816a10.004 10.004 0 01-3.2-2.33 10.751 10.751 0 01-2.033-3.34 11.382 11.382 0 01-.716-4.039c0-1.424.239-2.77.716-4.039a10.186 10.186 0 012.033-3.34 9.52 9.52 0 013.2-2.291c1.255-.57 2.648-.855 4.179-.855 1.531 0 2.912.285 4.142.855a9.06 9.06 0 013.2 2.291 9.89 9.89 0 012.071 3.34c.476 1.269.715 2.615.715 4.04 0 1.423-.239 2.77-.715 4.038a10.421 10.421 0 01-2.071 3.34 9.495 9.495 0 01-3.2 2.33c-1.23.544-2.611.816-4.142.816zm-5.873-10.486c0 1.294.263 2.46.79 3.495.527 1.036 1.23 1.851 2.109 2.447.878.595 1.87.893 2.974.893a5.12 5.12 0 002.937-.893c.903-.621 1.619-1.45 2.146-2.486.527-1.061.79-2.226.79-3.495 0-1.294-.263-2.46-.79-3.495-.527-1.036-1.243-1.852-2.146-2.447a4.97 4.97 0 00-2.937-.932c-1.104 0-2.096.31-2.974.932-.879.621-1.582 1.45-2.109 2.486-.527 1.01-.79 2.175-.79 3.495zM187.9 34.802V14.49h4.292l6.777 12.544 6.814-12.544H210v20.312h-3.953V20.509l-5.798 10.68h-2.598l-5.836-10.68v14.293H187.9z"/></svg>