<svg width="61" height="63" viewBox="0 0 61 63" fill="none" xmlns="http://www.w3.org/2000/svg"><path d="M50.833 52.5a2.67 2.67 0 01-.744 1.856 2.502 2.502 0 01-1.797.77H12.708a2.5 2.5 0 01-1.797-.77 2.67 2.67 0 01-.744-1.856V28.875H2.542L28.79 4.232a2.497 2.497 0 011.71-.684c.633 0 1.243.244 1.71.684l26.248 24.643h-7.625V52.5zM30.5 44.625l8.538-8.817c.53-.549.952-1.2 1.24-1.916a6.077 6.077 0 000-4.52 5.923 5.923 0 00-1.24-1.917 5.71 5.71 0 00-1.856-1.28 5.56 5.56 0 00-4.377 0 5.71 5.71 0 00-1.855 1.28l-.45.465-.45-.465a5.708 5.708 0 00-1.855-1.28 5.56 5.56 0 00-4.377 0 5.708 5.708 0 00-1.855 1.28 5.921 5.921 0 00-1.24 1.916 6.075 6.075 0 000 4.52 5.921 5.921 0 001.24 1.917l8.537 8.817z" fill="#5BC3E3"/></svg>