<svg width="20" height="20" viewBox="0 0 20 20" fill="none" xmlns="http://www.w3.org/2000/svg"><path d="M18.841 4.904l-5.459 5.424 5.46 5.424c.098-.207.158-.434.158-.678V5.582c0-.244-.06-.472-.159-.678zM17.418 4H2.582c-.244 0-.472.06-.678.159L8.881 11.1c.617.616 1.62.616 2.237 0l6.977-6.942A1.563 1.563 0 0017.418 4zm-16.259.904A1.564 1.564 0 001 5.582v9.492c0 .244.06.472.159.678l5.459-5.424-5.46-5.424z" fill="#5BC3E3"/><path d="M12.636 11.074l-.772.773a2.64 2.64 0 01-3.729 0l-.772-.773-5.459 5.424c.206.098.434.158.678.158h14.836c.243 0 .471-.06.677-.158l-5.459-5.424z" fill="#5BC3E3"/></svg>