<svg width="20" height="20" viewBox="0 0 20 20" fill="none" xmlns="http://www.w3.org/2000/svg"><path d="M17.574 13.562c-.044-.035-3.257-2.35-4.138-2.185-.421.075-.662.362-1.145.937a15.4 15.4 0 01-.41.473 7.394 7.394 0 01-4.665-4.665c.159-.146.381-.333.476-.412.572-.48.86-.721.934-1.143.153-.875-2.16-4.11-2.185-4.139a1.235 1.235 0 00-.92-.523c-.938 0-3.616 3.474-3.616 4.059 0 .034.049 3.49 4.31 7.825 4.332 4.257 7.787 4.306 7.821 4.306.586 0 4.06-2.678 4.06-3.616a1.23 1.23 0 00-.522-.917z" fill="#5BC3E3"/></svg>