<svg width="39" height="39" viewBox="0 0 39 39" fill="none" xmlns="http://www.w3.org/2000/svg"><g clip-path="url(#clip0_1_330)"><path d="M27.492 7.976l.207.18v-3.51c0-.562.456-1.017 1.018-1.017h4.57c.562 0 1.018.455 1.018 1.017v9.266l.043.037 1.235 1.077 2.943 2.564h0c.424.37.468 1.012.099 1.436l.094.082-.094-.082a1.017 1.017 0 01-1.436.099l-.392-.342-.207-.18v18.036c0 .562-.456 1.017-1.018 1.017H3.428A1.018 1.018 0 012.41 36.64V18.603l-.207.18-.392.342A1.018 1.018 0 01.474 17.59l-.082-.094.082.094L18.831 1.594a1.018 1.018 0 011.338 0l7.323 6.382zm2.367-2.312h-.125v4.265l.043.038 2.285 1.991.208.18V5.665h-2.411zM18.232 35.496v.125h2.536v-8.543c0-.43.27-.814.676-.959 2.372-.843 3.97-3.042 3.97-5.476 0-1.853-.925-3.57-2.413-4.655l-.198-.146v4.801c0 .27-.107.528-.298.719h0l-2.285 2.285a1.018 1.018 0 01-1.44 0l-.088.089.088-.089-2.285-2.285a1.02 1.02 0 01-.298-.72v-4.79l-.2.15a5.814 5.814 0 00-2.335 4.64c0 2.45 1.565 4.65 3.894 5.477l.041-.117-.041.117c.405.145.676.529.676.96v8.417zm16.198.125h.125V16.83l-.043-.037-14.93-13.01-.082-.071-.082.072-14.93 13.009-.043.037v18.791h11.752v-7.86l-.071-.034c-2.721-1.294-4.499-4.048-4.499-7.084 0-3.307 2.108-6.279 5.247-7.395a1.018 1.018 0 011.358.959v6.013l.037.037 1.143 1.142.088.089.088-.089 1.143-1.142.036-.037v-6.013a1.018 1.018 0 011.359-.959c3.186 1.133 5.323 4.106 5.323 7.395 0 3.024-1.807 5.78-4.575 7.085l-.071.034v7.859H34.43z" fill="#fff" stroke="#5BC3E3" stroke-width=".25"/></g><defs><clipPath id="clip0_1_330"><path fill="#fff" d="M0 0h39v39H0z"/></clipPath></defs></svg>