<svg width="39" height="39" viewBox="0 0 39 39" fill="none" xmlns="http://www.w3.org/2000/svg"><path d="M28.547 2.202h0a.956.956 0 00-.672-.277h-17.5a4.455 4.455 0 00-4.45 4.45v26.25a4.455 4.455 0 004.45 4.45h19.25a4.455 4.455 0 004.45-4.45v-24.5c0-.253-.1-.494-.277-.672h0l-5.25-5.25zm3.628 30.423a2.553 2.553 0 01-2.55 2.55h-19.25a2.553 2.553 0 01-2.55-2.55V6.375a2.553 2.553 0 012.55-2.55h17.107l4.693 4.693v24.107z" fill="#fff" stroke="#fff" stroke-width=".15"/><path d="M25.25 28.175h-10.5a.95.95 0 000 1.9h10.5a.95.95 0 000-1.9zm-5.674-3.451h0a.95.95 0 01-.425-1.274l.425 1.274zm0 0a.954.954 0 001.275-.424h0l3.5-7s0 0 0 0a.946.946 0 00-.042-.923.955.955 0 00-.81-.452h-5.462l2.812-5.624a.95.95 0 00-.425-1.275l-.034.067.034-.067a.95.95 0 00-1.275.425h0l-3.5 7 .067.034-.067-.034h0a.947.947 0 00.042.924c.173.28.48.45.809.45h5.463l-2.812 5.624.425 1.275z" fill="#fff" stroke="#fff" stroke-width=".15"/></svg>