<svg width="39" height="39" viewBox="0 0 39 39" fill="none" xmlns="http://www.w3.org/2000/svg"><path d="M15.984 4.381C13.345 1.743 9.396 1.325 6.307 2.99a1.026 1.026 0 00-.239 1.628l3.849 3.848a1.026 1.026 0 01-1.45 1.45l-3.85-3.849a1.025 1.025 0 00-1.628.239c-1.657 3.077-1.255 7.03 1.392 9.676a8.2 8.2 0 007.926 2.125L15.984 4.38zm0 0a8.2 8.2 0 012.124 7.925l2.048 2.048.07.07.071-.07 5.458-5.457.07-.071-.07-.07L25.1 8.1l-9.116-3.72zm10.64 16.584l.041.04.056-.014a8.101 8.101 0 017.829 2.098c2.614 2.614 3.012 6.518 1.375 9.558a.925.925 0 01-1.47.215l-.07.071.07-.07-3.848-3.849a1.127 1.127 0 00-1.591 1.592l3.848 3.848a.925.925 0 01-.216 1.47c-3.052 1.643-6.953 1.23-9.558-1.376a8.1 8.1 0 01-2.098-7.828l.015-.056-.041-.04-.669-.669-.07-.07-.07.07-9.473 9.472a5.033 5.033 0 01-7.11 0 5.022 5.022 0 010-7.11l-.07-.07.07.07 9.473-9.472.07-.07-.07-.071-.669-.668-.04-.041-.056.015a8.1 8.1 0 01-7.829-2.098C1.84 13.297 1.441 9.394 3.078 6.353a.926.926 0 01.68-.476h0a.925.925 0 01.79.26l3.848 3.85s0 0 0 0a1.127 1.127 0 001.591-1.592L6.14 4.546a.925.925 0 01.216-1.469c3.051-1.644 6.952-1.23 9.558 1.375a8.1 8.1 0 012.098 7.829l-.015.055.041.041 2.119 2.119.07.07.071-.07 5.599-5.6.07-.07-.07-.07-.725-.726a.926.926 0 01.178-1.448l7.25-4.35a.925.925 0 011.131.139h0l2.9 2.9.071-.07-.07.07c.3.3.357.767.139 1.13l.086.052-.086-.051-4.35 7.25a.925.925 0 01-1.449.179l-.07.07.07-.07-.725-.725-.07-.071-.071.07-5.599 5.6-.07.07.07.071 2.119 2.119zm6.364-16.72l-.056-.054-.066.04-5.438 3.263-.11.066.09.09 3.944 3.943.09.09.066-.109 3.263-5.438.04-.067-.055-.055-1.768-1.768zm-5.642 5.96l-.07-.07-.071.07-5.6 5.6-.07.07.07.07 1.45 1.45.072.072.07-.071 5.6-5.6.07-.07-.07-.07-1.45-1.45zM4.883 34.118l.071-.07-.07.07a3.18 3.18 0 004.492 0l9.471-9.472.071-.07-.07-.071-4.351-4.35-.071-.072-.07.071-9.473 9.472a3.172 3.172 0 000 4.492zM34.67 30.46l.122.122.045-.166a6.174 6.174 0 00-1.596-6.018l-.07.07.07-.07a6.286 6.286 0 00-6.523-1.47.925.925 0 01-.965-.217l-9.462-9.463h0a.925.925 0 01-.218-.964 6.285 6.285 0 00-1.469-6.523 6.173 6.173 0 00-6.018-1.597l-.166.046.122.121 2.754 2.755a2.98 2.98 0 010 4.209 2.98 2.98 0 01-4.209 0L4.333 8.54l-.122-.122-.046.166a6.174 6.174 0 001.597 6.018 6.285 6.285 0 006.523 1.47.925.925 0 01.964.217l9.463 9.462.07-.07-.07.07a.925.925 0 01.218.965 6.285 6.285 0 001.469 6.523 6.174 6.174 0 006.018 1.596l.166-.045-.122-.122-2.754-2.754a2.98 2.98 0 010-4.21 2.98 2.98 0 014.209 0l2.754 2.755z" fill="#fff" stroke="#5BC3E3" stroke-width=".2"/><path d="M15.262 25.253a.926.926 0 00-1.309-1.308h0m1.309 1.308l-1.38-1.379.071.07m1.309 1.31L8.996 31.52s0 0 0 0m6.266-6.267L8.996 31.52m4.957-7.575L7.687 30.21l6.266-6.266zM7.687 31.52a.925.925 0 010-1.31v1.31zm0 0a.925.925 0 001.309 0m-1.309 0h1.309" fill="#fff" stroke="#5BC3E3" stroke-width=".2"/></svg>