<svg width="39" height="39" viewBox="0 0 39 39" fill="none" xmlns="http://www.w3.org/2000/svg"><path d="M34.36 15.509H23.884V7.09H34.36a.946.946 0 000-1.892H23.747A1.895 1.895 0 0021.987 4h-1.893a1.88 1.88 0 00-.946.255A1.88 1.88 0 0018.202 4h-1.893c-.798 0-1.482.497-1.76 1.199H3.947a.946.946 0 000 1.892h10.471v8.418H3.947a.946.946 0 100 1.892h10.602a1.895 1.895 0 001.76 1.198h1.893c.344 0 .667-.093.946-.254.279.162.602.255.946.255h1.893c.798 0 1.482-.498 1.76-1.199H34.36a.946.946 0 000-1.892zm-18.05 1.198V5.892h1.892v10.815h-1.893zm5.677 0h-1.893V5.892h1.893v10.815zm-1.228 5.343c-.875-.89-1.229-1.054-1.61-1.054-.383 0-.737.164-1.612 1.055a21.856 21.856 0 00-1.704 1.983c-1.106 1.45-2.425 3.534-2.425 5.226a5.747 5.747 0 005.74 5.74 5.747 5.747 0 005.74-5.74c0-1.692-1.319-3.776-2.425-5.226a21.845 21.845 0 00-1.704-1.983zm-1.61 11.058A3.852 3.852 0 0115.3 29.26c0-.837.667-2.223 1.83-3.802a18.98 18.98 0 012.018-2.337 18.98 18.98 0 012.018 2.337c1.163 1.58 1.83 2.965 1.83 3.802a3.852 3.852 0 01-3.848 3.848z" fill="#fff"/></svg>