<svg width="20" height="12" viewBox="0 0 20 12" fill="none" xmlns="http://www.w3.org/2000/svg"><path d="M19.08 9.976c0-.073-.072-.073-.072-.145-.29-.581-.945-1.308-1.816-2.107-.436-.363-.654-.654-.8-.8-.218-.29-.218-.508-.145-.798.073-.218.363-.581.872-1.235.29-.363.436-.581.654-.8 1.09-1.452 1.598-2.397 1.453-2.832l-.073-.073c-.073-.073-.145-.145-.29-.145-.146-.073-.364-.073-.582 0h-3.269l-.072.072c-.073.073-.073.073-.073.146-.29.799-.654 1.452-1.017 2.179-.218.363-.436.726-.654 1.017-.218.29-.363.508-.508.654-.146.145-.291.218-.364.363-.072.073-.218.145-.218.073-.072 0-.145 0-.145-.073l-.218-.218c-.072-.073-.072-.218-.145-.363V1.259c0-.073-.073-.218-.073-.291L11.307.75c-.072-.073-.218-.073-.29-.145A6.515 6.515 0 009.709.459c-1.162 0-1.961.073-2.252.218-.145.073-.29.146-.363.291-.145.145-.145.218-.073.218.363.073.654.218.8.436l.072.145c.073.073.073.218.145.436.073.218.073.436.073.726v1.163c0 .363-.073.58-.073.799 0 .218-.072.363-.145.436-.073.145-.073.218-.145.218 0 0 0 .072-.073.072s-.145.073-.29.073c-.073 0-.218-.073-.291-.145a.875.875 0 01-.363-.364c-.146-.145-.29-.363-.436-.653-.146-.291-.363-.582-.509-1.017l-.145-.291a9.931 9.931 0 01-.363-.8c-.146-.362-.29-.653-.436-1.016a1.003 1.003 0 00-.218-.29h-.073s-.072-.073-.145-.073-.145-.073-.218-.073H1.573c-.29 0-.436.073-.509.145l-.072.073v.145c0 .073 0 .145.072.29.364.873.8 1.744 1.235 2.616.436.8.872 1.526 1.163 2.034.363.509.653 1.017 1.017 1.453.363.436.58.726.653.872l.291.29.218.218c.145.146.363.363.654.581.29.218.654.436 1.017.654.363.218.799.363 1.235.509.508.145.944.218 1.38.145h1.09a.66.66 0 00.508-.218l.073-.073c0-.072.072-.072.072-.145v-.29c0-.291 0-.509.073-.727.073-.218.073-.363.146-.508.072-.146.145-.218.217-.291l.146-.145h.072c.146-.073.364 0 .509.145a2.2 2.2 0 01.581.581c.145.218.363.436.654.727.29.29.508.508.654.58l.218.146c.145.073.29.145.508.218.218.073.363.073.509.073l2.47-.073c.218 0 .435-.073.58-.145.146-.073.219-.146.219-.29v-.291c-.146-.146-.146-.218-.146-.291z" fill="#5BC3E3"/></svg>