<svg width="21" height="21" viewBox="0 0 21 21" fill="none" xmlns="http://www.w3.org/2000/svg"><path d="M17.986 2.924A9.897 9.897 0 0010.933 0 9.983 9.983 0 002.29 14.959L.875 20.125l5.287-1.388a9.943 9.943 0 004.766 1.213h.005C16.427 19.95 21 15.476 21 9.977c0-2.664-1.132-5.166-3.014-7.053zM10.933 18.27c-1.491 0-2.951-.4-4.223-1.155l-.3-.18-3.136.823.835-3.06-.197-.314a8.262 8.262 0 01-1.267-4.411c0-4.569 3.72-8.288 8.293-8.288 2.214 0 4.294.862 5.857 2.43 1.564 1.568 2.525 3.647 2.52 5.862 0 4.573-3.813 8.293-8.382 8.293zm4.546-6.208c-.247-.126-1.473-.728-1.702-.81-.23-.084-.396-.125-.562.127-.166.251-.642.808-.79.979-.144.166-.293.189-.54.063-1.464-.732-2.425-1.307-3.391-2.965-.256-.44.256-.409.732-1.361.08-.166.04-.31-.022-.436-.063-.126-.562-1.352-.769-1.85-.202-.486-.408-.418-.561-.427-.144-.01-.31-.01-.476-.01a.923.923 0 00-.665.31c-.23.252-.872.854-.872 2.08 0 1.227.894 2.413 1.016 2.579.125.166 1.756 2.682 4.258 3.764 1.581.683 2.201.742 2.992.625.48-.072 1.473-.602 1.68-1.186.207-.584.207-1.083.144-1.186-.059-.112-.225-.175-.472-.296z" fill="#5BC3E3"/></svg>