<svg width="1440" height="1357" viewBox="0 0 1440 1357" fill="none" xmlns="http://www.w3.org/2000/svg"><g opacity=".07" stroke="#000"><path d="M2245.42 2583.94c-215.93 359.79-682.11 562.78-1135.8 637.5-450.14 68.55-891.356 14.99-1350.537-163.9-462.736-172.73-948.293-469.49-1016.753-841.57-68.47-372.08 283.716-825.64 585.425-1234.436 305.265-414.957 566.213-781.6 981.818-1017.897C731.336-269.104 1307.76-371.499 1682.46-138.739c373.41 227.902 543.8 786.102 645.5 1321.059 101.69 534.96 134.7 1046.69-82.54 1401.62z"/><path d="M2161.31 2543.6c-205.14 341.8-648 534.65-1079.01 605.63-427.633 65.13-846.788 14.24-1283.009-155.7-439.599-164.1-900.881-446.02-965.921-799.5-65.04-353.47 269.535-784.35 556.159-1172.71C-320.47 627.11-72.569 278.799 322.256 54.317 722.931-166.787 1270.53-264.06 1626.5-42.94c354.74 216.508 516.61 746.797 613.22 1255.01 96.61 508.21 127.97 994.35-78.41 1331.53z"/><path d="M1988.24 2444.83c-183.54 305.82-579.79 478.37-965.43 541.88-382.617 58.27-757.651 12.74-1147.954-139.32-393.326-146.82-806.049-399.06-864.244-715.33-58.192-316.27 241.162-701.79 497.614-1049.27 259.476-352.716 481.282-664.363 834.546-865.215C701.27 19.745 1191.23-67.29 1509.73 130.555c317.39 193.718 462.23 668.187 548.67 1122.905 86.44 454.72 114.49 889.68-70.16 1191.37z"/><path d="M1815.17 2346.06c-161.95 269.84-511.58 422.09-851.848 478.12-337.604 51.42-668.516 11.25-1012.901-122.92-347.052-129.55-711.22-352.12-762.569-631.18-51.348-279.06 212.79-619.22 439.072-925.82 228.949-311.221 424.66-586.204 736.364-763.426C679.61 206.278 1111.92 129.482 1392.95 304.052c280.06 170.926 407.85 589.576 484.13 990.798 76.27 401.22 101.02 785.01-61.91 1051.21z"/><path d="M1642.11 2247.29c-140.36 233.86-443.37 365.81-738.275 414.37-292.591 44.56-579.381 9.75-877.848-106.53-300.779-112.28-616.391-305.17-660.893-547.02-44.502-241.85 184.418-536.67 380.529-802.39 198.422-269.718 368.039-508.036 638.182-661.628 274.146-151.282 648.815-217.839 892.375-66.545 242.72 148.136 353.47 510.966 419.57 858.693 66.11 347.72 87.56 680.34-53.64 911.05z"/><path d="M1469.04 2148.52c-118.77 197.88-375.16 309.53-624.694 350.62-247.576 37.71-490.245 8.25-742.794-90.14-254.505-95.01-521.562-258.22-559.217-462.87-37.655-204.64 156.046-454.1 321.986-678.94 167.896-228.22 311.417-429.877 540-559.84 231.97-128.007 549-184.325 755.089-56.307 205.37 125.347 299.09 432.357 355.02 726.587 55.94 294.23 74.09 575.67-45.39 770.89z"/><path d="M1295.97 2049.74c-97.17 161.91-306.95 253.26-511.112 286.88-202.563 30.85-401.11 6.75-607.741-73.76-208.231-77.73-426.732-211.27-457.541-378.7-30.809-167.44 127.674-371.54 263.443-555.5 137.369-186.73 254.796-351.719 441.818-458.052 189.794-104.734 449.182-150.812 617.803-46.07 168.03 102.556 244.71 353.742 290.47 594.482 45.76 240.73 60.61 471-37.14 630.72z"/><path d="M1122.9 1950.97c-75.58 125.93-238.738 196.98-397.531 223.13-157.548 23.99-311.974 5.24-472.687-57.37-161.957-60.45-331.903-164.32-355.865-294.55-23.963-130.22 99.302-288.97 204.9-432.05 106.843-145.23 198.175-273.56 343.636-356.26 147.617-81.463 349.364-117.301 480.512-35.835 130.695 79.765 190.325 275.135 225.925 462.375 35.59 187.23 47.14 366.34-28.89 490.56z"/><path d="M949.831 1852.2c-53.983 89.95-170.527 140.69-283.95 159.37-112.535 17.14-222.839 3.75-337.634-40.97-115.684-43.18-237.073-117.37-254.19-210.39-17.116-93.02 70.931-206.41 146.358-308.61 76.316-103.74 141.553-195.4 245.454-254.48 105.441-58.18 249.546-83.78 343.223-25.59 93.351 56.98 135.949 196.53 161.373 330.27 25.425 133.74 33.675 261.67-20.634 350.4z"/><path d="M1900.11 2389.47c-173.13 286.41-546.17 448.44-909.065 508.43C631 2952.99 278.243 2910.95-88.721 2769.25c-369.815-136.79-757.723-372.19-812.003-668.02-54.279-295.82 227.92-656.98 469.701-982.48 244.631-330.4 453.764-622.32 786.405-810.77C692.943 122.35 1154.01 40.19 1453.36 224.831c298.31 180.781 433.86 624.502 514.51 1049.829 80.65 425.32 106.4 832.26-67.76 1114.81z"/><path d="M1727.54 2292.57c-151.49 250.61-477.89 392.39-795.427 444.88-315.04 48.21-623.702 11.42-944.796-112.56-323.588-119.7-663.007-325.67-710.502-584.52-47.495-258.85 199.43-574.86 410.988-859.67C-98.145 891.596 84.846 636.166 375.907 471.272c295.366-162.426 698.803-234.316 960.733-72.755 261.02 158.183 379.63 546.439 450.2 918.603 70.57 372.16 93.09 728.22-59.3 975.45z"/><path d="M2072.67 2486.36c-194.77 322.21-614.43 504.49-1022.69 571.99-405.053 61.97-801.904 14.67-1214.739-144.73-416.042-153.89-852.441-418.72-913.501-751.52-61.07-332.81 256.408-739.11 528.411-1105.3 275.21-371.697 510.485-700.107 884.706-912.113C714.613-64.147 1233.32-156.577 1570.08 51.144c335.6 203.378 488.1 702.565 578.83 1181.056 90.73 478.49 119.69 936.29-76.24 1254.16z"/><path d="M1554.98 2195.68c-129.85 214.81-409.63 336.33-681.8 381.32-270.034 41.32-534.601 9.79-809.824-96.48-277.362-102.59-568.293-279.14-609.003-501.01-40.709-221.88 170.94-492.74 352.276-736.87C-9.898 994.843 146.952 775.903 396.433 634.565c253.171-139.222 598.973-200.843 823.487-62.361 223.73 135.585 325.39 468.376 385.88 787.366 60.49 319 79.8 624.2-50.82 836.11z"/><path d="M1382.41 2098.79c-108.2 179-341.35 280.27-568.163 317.77-225.028 34.43-445.501 8.15-674.853-80.41-231.135-85.49-473.577-232.62-507.502-417.51-33.925-184.89 142.45-410.61 293.563-614.05 152.894-206.5 283.602-388.95 491.503-506.732C627.934 681.84 916.102 630.489 1103.19 745.89c186.45 112.988 271.17 390.31 321.57 656.14 50.41 265.83 66.5 520.16-42.35 696.76z"/><path d="M1037.28 1905c-64.923 107.4-204.812 168.17-340.898 190.66-135.017 20.66-267.3 4.9-404.912-48.24-138.681-51.3-284.146-139.57-304.501-250.51-20.355-110.93 85.47-246.37 176.138-368.43 91.736-123.9 170.161-233.37 294.902-304.04 126.585-69.61 299.486-100.42 411.741-31.18 111.867 67.8 162.7 234.19 192.94 393.69 30.25 159.5 39.9 312.09-25.41 418.05z"/><path d="M1037.28 1905c-64.923 107.4-204.812 168.17-340.898 190.66-135.017 20.66-267.3 4.9-404.912-48.24-138.681-51.3-284.146-139.57-304.501-250.51-20.355-110.93 85.47-246.37 176.138-368.43 91.736-123.9 170.161-233.37 294.902-304.04 126.585-69.61 299.486-100.42 411.741-31.18 111.867 67.8 162.7 234.19 192.94 393.69 30.25 159.5 39.9 312.09-25.41 418.05z"/><path d="M864.715 1808.11c-43.282 71.6-136.541 112.11-227.265 127.11-90.012 13.77-178.201 3.26-269.942-32.17-92.454-34.19-189.431-93.04-203.001-167-13.57-73.96 56.98-164.25 117.426-245.62 61.157-82.6 113.441-155.58 196.601-202.69 84.39-46.41 199.658-66.95 274.494-20.79 74.578 45.19 108.466 156.12 128.629 262.46 20.162 106.33 26.599 208.06-16.942 278.7z"/><path d="M864.715 1808.11c-43.282 71.6-136.541 112.11-227.265 127.11-90.012 13.77-178.201 3.26-269.942-32.17-92.454-34.19-189.431-93.04-203.001-167-13.57-73.96 56.98-164.25 117.426-245.62 61.157-82.6 113.441-155.58 196.601-202.69 84.39-46.41 199.658-66.95 274.494-20.79 74.578 45.19 108.466 156.12 128.629 262.46 20.162 106.33 26.599 208.06-16.942 278.7z"/><path d="M780.858 1768.71c-32.461 53.7-102.406 84.08-170.449 95.33-67.508 10.33-133.65 2.45-202.456-24.12-69.34-25.65-142.073-69.78-152.25-125.25-10.178-55.47 42.735-123.19 88.068-184.22 45.869-61.95 85.081-116.68 147.451-152.02 63.293-34.8 149.744-50.21 205.871-15.59 55.933 33.9 81.35 117.1 96.471 196.85 15.122 79.74 19.95 156.04-12.706 209.02z"/><path d="M780.858 1768.71c-32.461 53.7-102.406 84.08-170.449 95.33-67.508 10.33-133.65 2.45-202.456-24.12-69.34-25.65-142.073-69.78-152.25-125.25-10.178-55.47 42.735-123.19 88.068-184.22 45.869-61.95 85.081-116.68 147.451-152.02 63.293-34.8 149.744-50.21 205.871-15.59 55.933 33.9 81.35 117.1 96.471 196.85 15.122 79.74 19.95 156.04-12.706 209.02z"/><path d="M1209.85 2001.89c-86.57 143.21-273.087 224.22-454.535 254.22-180.023 27.54-356.401 6.52-539.883-64.32-184.908-68.4-378.862-186.1-406.002-334.01-27.14-147.92 113.96-328.5 234.85-491.24 122.316-165.2 226.883-311.16 393.203-405.39 168.781-92.815 399.316-133.895 548.989-41.574 149.158 90.394 216.928 312.254 257.258 524.914 40.32 212.66 53.2 416.13-33.88 557.4z"/><path d="M1209.85 2001.89c-86.57 143.21-273.087 224.22-454.535 254.22-180.023 27.54-356.401 6.52-539.883-64.32-184.908-68.4-378.862-186.1-406.002-334.01-27.14-147.92 113.96-328.5 234.85-491.24 122.316-165.2 226.883-311.16 393.203-405.39 168.781-92.815 399.316-133.895 548.989-41.574 149.158 90.394 216.928 312.254 257.258 524.914 40.32 212.66 53.2 416.13-33.88 557.4z"/></g></svg>