<svg width="1440" height="1357" viewBox="0 0 1440 1357" fill="none" xmlns="http://www.w3.org/2000/svg">
<g opacity="0.07">
<path d="M2245.42 2583.94C2029.49 2943.73 1563.31 3146.72 1109.62 3221.44C659.48 3289.99 218.264 3236.43 -240.917 3057.54C-703.653 2884.81 -1189.21 2588.05 -1257.67 2215.97C-1326.14 1843.89 -973.954 1390.33 -672.245 981.534C-366.98 566.577 -106.032 199.934 309.573 -36.3628C731.336 -269.104 1307.76 -371.499 1682.46 -138.739C2055.87 89.1634 2226.26 647.363 2327.96 1182.32C2429.65 1717.28 2462.66 2229.01 2245.42 2583.94Z" stroke="black"/>
<path d="M2161.31 2543.6C1956.17 2885.4 1513.31 3078.25 1082.3 3149.23C654.667 3214.36 235.512 3163.47 -200.709 2993.53C-640.308 2829.43 -1101.59 2547.51 -1166.63 2194.03C-1231.67 1840.56 -897.095 1409.68 -610.471 1021.32C-320.47 627.11 -72.5686 278.799 322.256 54.3175C722.931 -166.787 1270.53 -264.061 1626.5 -42.9399C1981.24 173.568 2143.11 703.857 2239.72 1212.07C2336.33 1720.28 2367.69 2206.42 2161.31 2543.6Z" stroke="black"/>
<path d="M1988.24 2444.83C1804.7 2750.65 1408.45 2923.2 1022.81 2986.71C640.193 3044.98 265.159 2999.45 -125.144 2847.39C-518.47 2700.57 -931.193 2448.33 -989.388 2132.06C-1047.58 1815.79 -748.226 1430.27 -491.774 1082.79C-232.298 730.074 -10.4922 418.427 342.772 217.575C701.27 19.7452 1191.23 -67.2902 1509.73 130.555C1827.12 324.273 1971.96 798.742 2058.4 1253.46C2144.84 1708.18 2172.89 2143.14 1988.24 2444.83Z" stroke="black"/>
<path d="M1815.17 2346.06C1653.22 2615.9 1303.59 2768.15 963.322 2824.18C625.718 2875.6 294.806 2835.43 -49.5794 2701.26C-396.631 2571.71 -760.799 2349.14 -812.148 2070.08C-863.496 1791.02 -599.358 1450.86 -373.076 1144.26C-144.127 833.039 51.5844 558.056 363.288 380.834C679.61 206.278 1111.92 129.482 1392.95 304.052C1673.01 474.978 1800.8 893.628 1877.08 1294.85C1953.35 1696.07 1978.1 2079.86 1815.17 2346.06Z" stroke="black"/>
<path d="M1642.11 2247.29C1501.75 2481.15 1198.74 2613.1 903.835 2661.66C611.244 2706.22 324.454 2671.41 25.9866 2555.13C-274.792 2442.85 -590.404 2249.96 -634.906 2008.11C-679.408 1766.26 -450.488 1471.44 -254.377 1205.72C-55.9547 936.002 113.662 697.684 383.805 544.092C657.951 392.81 1032.62 326.253 1276.18 477.547C1518.9 625.683 1629.65 988.513 1695.75 1336.24C1761.86 1683.96 1783.31 2016.58 1642.11 2247.29Z" stroke="black"/>
<path d="M1469.04 2148.52C1350.27 2346.4 1093.88 2458.05 844.346 2499.14C596.77 2536.85 354.101 2507.39 101.552 2409C-152.953 2313.99 -420.01 2150.78 -457.665 1946.13C-495.32 1741.49 -301.619 1492.03 -135.679 1267.19C32.2168 1038.97 175.738 837.313 404.321 707.35C636.291 579.343 953.321 523.025 1159.41 651.043C1364.78 776.39 1458.5 1083.4 1514.43 1377.63C1570.37 1671.86 1588.52 1953.3 1469.04 2148.52Z" stroke="black"/>
<path d="M1295.97 2049.74C1198.8 2211.65 989.02 2303 784.858 2336.62C582.295 2367.47 383.748 2343.37 177.117 2262.86C-31.1144 2185.13 -249.615 2051.59 -280.424 1884.16C-311.233 1716.72 -152.75 1512.62 -16.9811 1328.66C120.388 1141.93 237.815 976.941 424.837 870.608C614.631 765.874 874.019 719.796 1042.64 824.538C1210.67 927.094 1287.35 1178.28 1333.11 1419.02C1378.87 1659.75 1393.72 1890.02 1295.97 2049.74Z" stroke="black"/>
<path d="M1122.9 1950.97C1047.32 2076.9 884.162 2147.95 725.369 2174.1C567.821 2198.09 413.395 2179.34 252.682 2116.73C90.7245 2056.28 -79.2206 1952.41 -103.183 1822.18C-127.146 1691.96 -3.8812 1533.21 101.717 1390.13C208.56 1244.9 299.892 1116.57 445.353 1033.87C592.97 952.407 794.717 916.569 925.865 998.035C1056.56 1077.8 1116.19 1273.17 1151.79 1460.41C1187.38 1647.64 1198.93 1826.75 1122.9 1950.97Z" stroke="black"/>
<path d="M949.831 1852.2C895.848 1942.15 779.304 1992.89 665.881 2011.57C553.346 2028.71 443.042 2015.32 328.247 1970.6C212.563 1927.42 91.1737 1853.23 74.0576 1760.21C56.9415 1667.19 144.988 1553.8 220.415 1451.6C296.731 1347.86 361.968 1256.2 465.869 1197.12C571.31 1138.94 715.415 1113.34 809.092 1171.53C902.443 1228.51 945.041 1368.06 970.465 1501.8C995.89 1635.54 1004.14 1763.47 949.831 1852.2Z" stroke="black"/>
<path d="M1900.11 2389.47C1726.98 2675.88 1353.94 2837.91 991.045 2897.9C631 2952.99 278.243 2910.95 -88.7208 2769.25C-458.536 2632.46 -846.444 2397.06 -900.724 2101.23C-955.003 1805.41 -672.804 1444.25 -431.023 1118.75C-186.392 788.35 22.7409 496.43 355.382 307.98C692.943 122.35 1154.01 40.1896 1453.36 224.831C1751.67 405.612 1887.22 849.333 1967.87 1274.66C2048.52 1699.98 2074.27 2106.92 1900.11 2389.47Z" stroke="black"/>
<path d="M1727.54 2292.57C1576.05 2543.18 1249.65 2684.96 932.113 2737.45C617.073 2785.66 308.411 2748.87 -12.6826 2624.89C-336.271 2505.19 -675.69 2299.22 -723.185 2040.37C-770.68 1781.52 -523.755 1465.51 -312.197 1180.7C-98.1446 891.596 84.8464 636.166 375.907 471.272C671.273 308.846 1074.71 236.956 1336.64 398.517C1597.66 556.7 1716.27 944.956 1786.84 1317.12C1857.41 1689.28 1879.93 2045.34 1727.54 2292.57Z" stroke="black"/>
<path d="M2072.67 2486.36C1877.9 2808.57 1458.24 2990.85 1049.98 3058.35C644.927 3120.32 248.076 3073.02 -164.759 2913.62C-580.801 2759.73 -1017.2 2494.9 -1078.26 2162.1C-1139.33 1829.29 -821.852 1422.99 -549.849 1056.8C-274.639 685.103 -39.3645 356.693 334.857 144.687C714.613 -64.1468 1233.32 -156.577 1570.08 51.1444C1905.68 254.522 2058.18 753.709 2148.91 1232.2C2239.64 1710.69 2268.6 2168.49 2072.67 2486.36Z" stroke="black"/>
<path d="M1554.98 2195.68C1425.13 2410.49 1145.35 2532.01 873.18 2577C603.146 2618.32 338.579 2586.79 63.3555 2480.52C-214.006 2377.93 -504.937 2201.38 -545.647 1979.51C-586.356 1757.63 -374.707 1486.77 -193.371 1242.64C-9.89763 994.843 146.952 775.903 396.433 634.565C649.604 495.343 995.406 433.722 1219.92 572.204C1443.65 707.789 1545.31 1040.58 1605.8 1359.57C1666.29 1678.57 1685.6 1983.77 1554.98 2195.68Z" stroke="black"/>
<path d="M1382.41 2098.79C1274.21 2277.79 1041.06 2379.06 814.247 2416.56C589.219 2450.99 368.746 2424.71 139.394 2336.15C-91.7408 2250.66 -334.183 2103.53 -368.108 1918.64C-402.033 1733.75 -225.658 1508.03 -74.5455 1304.59C78.3492 1098.09 209.057 915.64 416.958 797.858C627.934 681.84 916.102 630.489 1103.19 745.89C1289.64 858.878 1374.36 1136.2 1424.76 1402.03C1475.17 1667.86 1491.26 1922.19 1382.41 2098.79Z" stroke="black"/>
<path d="M1037.28 1905C972.357 2012.4 832.468 2073.17 696.382 2095.66C561.365 2116.32 429.082 2100.56 291.47 2047.42C152.789 1996.12 7.32381 1907.85 -13.0311 1796.91C-33.386 1685.98 72.4389 1550.54 163.107 1428.48C254.843 1304.58 333.268 1195.11 458.009 1124.44C584.594 1054.83 757.495 1024.02 869.75 1093.26C981.617 1161.06 1032.45 1327.45 1062.69 1486.95C1092.94 1646.45 1102.59 1799.04 1037.28 1905Z" stroke="black"/>
<path d="M1037.28 1905C972.357 2012.4 832.468 2073.17 696.382 2095.66C561.365 2116.32 429.082 2100.56 291.47 2047.42C152.789 1996.12 7.32381 1907.85 -13.0311 1796.91C-33.386 1685.98 72.4389 1550.54 163.107 1428.48C254.843 1304.58 333.268 1195.11 458.009 1124.44C584.594 1054.83 757.495 1024.02 869.75 1093.26C981.617 1161.06 1032.45 1327.45 1062.69 1486.95C1092.94 1646.45 1102.59 1799.04 1037.28 1905Z" stroke="black"/>
<path d="M864.715 1808.11C821.433 1879.71 728.174 1920.22 637.45 1935.22C547.438 1948.99 459.249 1938.48 367.508 1903.05C275.054 1868.86 178.077 1810.01 164.507 1736.05C150.937 1662.09 221.487 1571.8 281.933 1490.43C343.09 1407.83 395.374 1334.85 478.534 1287.74C562.924 1241.33 678.192 1220.79 753.028 1266.95C827.606 1312.14 861.494 1423.07 881.657 1529.41C901.819 1635.74 908.256 1737.47 864.715 1808.11Z" stroke="black"/>
<path d="M864.715 1808.11C821.433 1879.71 728.174 1920.22 637.45 1935.22C547.438 1948.99 459.249 1938.48 367.508 1903.05C275.054 1868.86 178.077 1810.01 164.507 1736.05C150.937 1662.09 221.487 1571.8 281.933 1490.43C343.09 1407.83 395.374 1334.85 478.534 1287.74C562.924 1241.33 678.192 1220.79 753.028 1266.95C827.606 1312.14 861.494 1423.07 881.657 1529.41C901.819 1635.74 908.256 1737.47 864.715 1808.11Z" stroke="black"/>
<path d="M780.858 1768.71C748.397 1822.41 678.452 1852.79 610.409 1864.04C542.901 1874.37 476.759 1866.49 407.953 1839.92C338.613 1814.27 265.88 1770.14 255.703 1714.67C245.525 1659.2 298.438 1591.48 343.771 1530.45C389.64 1468.5 428.852 1413.77 491.222 1378.43C554.515 1343.63 640.966 1328.22 697.093 1362.84C753.026 1396.74 778.443 1479.94 793.564 1559.69C808.686 1639.43 813.514 1715.73 780.858 1768.71Z" stroke="black"/>
<path d="M780.858 1768.71C748.397 1822.41 678.452 1852.79 610.409 1864.04C542.901 1874.37 476.759 1866.49 407.953 1839.92C338.613 1814.27 265.88 1770.14 255.703 1714.67C245.525 1659.2 298.438 1591.48 343.771 1530.45C389.64 1468.5 428.852 1413.77 491.222 1378.43C554.515 1343.63 640.966 1328.22 697.093 1362.84C753.026 1396.74 778.443 1479.94 793.564 1559.69C808.686 1639.43 813.514 1715.73 780.858 1768.71Z" stroke="black"/>
<path d="M1209.85 2001.89C1123.28 2145.1 936.763 2226.11 755.315 2256.11C575.292 2283.65 398.914 2262.63 215.432 2191.79C30.5243 2123.39 -163.43 2005.69 -190.57 1857.78C-217.71 1709.86 -76.6097 1529.28 44.2806 1366.54C166.596 1201.34 271.163 1055.38 437.483 961.15C606.264 868.335 836.799 827.255 986.472 919.576C1135.63 1009.97 1203.4 1231.83 1243.73 1444.49C1284.05 1657.15 1296.93 1860.62 1209.85 2001.89Z" stroke="black"/>
<path d="M1209.85 2001.89C1123.28 2145.1 936.763 2226.11 755.315 2256.11C575.292 2283.65 398.914 2262.63 215.432 2191.79C30.5243 2123.39 -163.43 2005.69 -190.57 1857.78C-217.71 1709.86 -76.6097 1529.28 44.2806 1366.54C166.596 1201.34 271.163 1055.38 437.483 961.15C606.264 868.335 836.799 827.255 986.472 919.576C1135.63 1009.97 1203.4 1231.83 1243.73 1444.49C1284.05 1657.15 1296.93 1860.62 1209.85 2001.89Z" stroke="black"/>
</g>
</svg>
